PathFileType	4	(X/Y/Z)	/Users/niels/Desktop/University/Third Semester/Perception and Action/Exam/Gymnastics Motion Tracking/Code for Gym Tracking/Analyzed Data/Webcam_Backflip/id2001_3_baseline_Sports2D/id2001_3_baseline_Sports2D_px_person00.trc
DataRate	CameraRate	NumFrames	NumMarkers	Units	OrigDataRate	OrigDataStartFrame	OrigNumFrames
29.888475836431226	29.888475836431226	10	22	m	29.888475836431226	33	269
Frame#	Time	Hip			RHip			RKnee			RAnkle			RBigToe			RSmallToe			RHeel			LHip			LKnee			LAnkle			LBigToe			LSmallToe			LHeel			Neck			Head			Nose			RShoulder			RElbow			RWrist			LShoulder			LElbow			LWrist		
		X1	Y1	Z1	X2	Y2	Z2	X3	Y3	Z3	X4	Y4	Z4	X5	Y5	Z5	X6	Y6	Z6	X7	Y7	Z7	X8	Y8	Z8	X9	Y9	Z9	X10	Y10	Z10	X11	Y11	Z11	X12	Y12	Z12	X13	Y13	Z13	X14	Y14	Z14	X15	Y15	Z15	X16	Y16	Z16	X17	Y17	Z17	X18	Y18	Z18	X19	Y19	Z19	X20	Y20	Z20	X21	Y21	Z21	X22	Y22	Z22
33	1.1041044776119404	1.0247829626796605	-0.7499529161686721	0.0	1.0110317988450948	-0.7676262516412395	0.0	1.025339749211785	-1.0595430369991636	0.0	1.3600080648666222	-1.1030613543857468	0.0	1.6470833502868187	-1.18843870227858	0.0	1.666634765644999	-1.1260136719029044	0.0	1.3822229331151534	-1.1125097351065676	0.0	1.0444815787521298	-0.7695173269848038	0.0	1.0196637334863585	-1.0605071706623985	0.0	0.9961290069500168	-1.078162169381693	0.0	1.3889636767220694	-1.2011342432819956	0.0	1.310550026131961	-1.2011342432819956	0.0	1.1773668312468606	-1.102987718649811	0.0	1.0722618375859305	-0.2283852168527871	0.0	1.1628313913256865	-0.036607434611047644	0.0	1.1619827223589956	-0.14537155400739538	0.0	1.0200054300725918	-0.2790604067173816	0.0	1.0177709537694863	-0.574072452622795	0.0	1.080990018934893	-0.8405884718875165	0.0	1.0848131302737014	-0.297255017736889	0.0	1.076104043479975	-0.5581463479843302	0.0	1.117417824821644	-0.7936568080836817	0.0
34	1.1375621890547265	1.0163459265509813	-0.7453669921894426	0.0	1.0024763940229697	-0.7598094968593133	0.0	1.025450868045656	-1.0606765551468782	0.0	1.3600056113739953	-1.1030624531333573	0.0	1.6470828652446379	-1.1884386245036311	0.0	1.6666347656119933	-1.1260136718444225	0.0	1.382223406748045	-1.112509656585854	0.0	1.0405309799071838	-0.7637649632172429	0.0	1.0434930059236005	-1.0618507382334579	0.0	0.9936520889613304	-1.0777735619305224	0.0	1.388967405277468	-1.2011306353027342	0.0	1.3105525237222801	-1.2011306353027342	0.0	1.1773595493209275	-1.1029939027164337	0.0	1.0648977897654683	-0.2267166897982128	0.0	1.1538976867227355	-0.032764415751952526	0.0	1.1534700989260898	-0.14180434109657017	0.0	1.015717037561317	-0.27829680285635106	0.0	1.033322787678424	-0.5727573255066533	0.0	1.1292595878879295	-0.8309672900722794	0.0	1.079910691867428	-0.2969627375061206	0.0	1.0807536321054139	-0.5591603611076587	0.0	1.134739052499024	-0.792546859726142	0.0
35	1.1710199004975126	1.01284285935644	-0.7406215747499615	0.0	0.9970758866794571	-0.7518010755950334	0.0	1.0269230514727454	-1.0615811567850226	0.0	1.3600059833444615	-1.1030623264081845	0.0	1.647084119724566	-1.1884389148562695	0.0	1.6666347655405396	-1.1260136717227383	0.0	1.3822240584140015	-1.1125095217632546	0.0	1.045322705979499	-0.7578253507113059	0.0	1.0844006804893798	-1.0607601508077158	0.0	0.9917076584551445	-1.077929247568579	0.0	1.3889651885801302	-1.201124913952304	0.0	1.3105293492948937	-1.201124913952304	0.0	1.1773276724187962	-1.1029922034053812	0.0	1.0565088605812778	-0.2249878960583064	0.0	1.143847257972789	-0.029234190871432326	0.0	1.1439365826561145	-0.1380322731407809	0.0	1.0110376839319006	-0.27643754191728487	0.0	1.04971624528735	-0.5671441579912508	0.0	1.1819500222902735	-0.8119065451459488	0.0	1.0736168900183423	-0.2962256288191496	0.0	1.0866697901158142	-0.5594355707678327	0.0	1.1561327886976993	-0.7870036642219115	0.0
36	1.2044776119402987	1.013922983384042	-0.7364279449682903	0.0	0.9944055036382834	-0.7449540956722336	0.0	1.0286239348930755	-1.062163552985005	0.0	1.360007421920343	-1.103061728137182	0.0	1.647085753822792	-1.1884392788296658	0.0	1.666634765422651	-1.1260136715274855	0.0	1.3822246078471812	-1.1125094000728764	0.0	1.0571667881678424	-0.7526304787870974	0.0	1.1362214547948013	-1.0554701690654258	0.0	0.9922568281404918	-1.0792754550016335	0.0	1.388950018587415	-1.2011178126892703	0.0	1.3104591327329593	-1.2011178126892703	0.0	1.1772570507162188	-1.1029725175658374	0.0	1.0479161599214957	-0.22300709842052585	0.0	1.1334485277563442	-0.026010472997793965	0.0	1.134336889417413	-0.13419044802531077	0.0	1.006264346476049	-0.27359967127603	0.0	1.0654650581043033	-0.5564365927783598	0.0	1.2354781179786807	-0.7819857866749118	0.0	1.0657106526658013	-0.29446601717684256	0.0	1.0936055318706912	-0.5585183425498116	0.0	1.1806734241726178	-0.7749328869543769	0.0
37	1.2379353233830848	1.0176579670477715	-0.7327751561994637	0.0	0.993270977348669	-0.7396949283102423	0.0	1.029502917139317	-1.0624114996707268	0.0	1.3600089134780025	-1.1030610969255927	0.0	1.6470871037983033	-1.1884395749427914	0.0	1.6666347652693314	-1.1260136712816387	0.0	1.382224967081971	-1.1125093166839501	0.0	1.0713539882940237	-0.7480838698484753	0.0	1.1884818043546075	-1.0440609941839374	0.0	0.9984553257677027	-1.082613102480039	0.0	1.3889133852298192	-1.201112010253496	0.0	1.3103208538742455	-1.201112010253496	0.0	1.1771387315837443	-1.1029221272092642	0.0	1.0398714842418428	-0.22056583152055403	0.0	1.1233542221162562	-0.022955178187969952	0.0	1.1254987731074704	-0.13037326943177174	0.0	1.0016877524172976	-0.270295748093941	0.0	1.079063052534173	-0.5405327568922484	0.0	1.2853534346100748	-0.7407063927434253	0.0	1.0563027229932413	-0.29130827770248646	0.0	1.1009302613349627	-0.5552933459247135	0.0	1.2072401234341676	-0.7539095687233188	0.0
38	1.2713930348258708	1.021709756598632	-0.7293696647029723	0.0	0.9922937721780969	-0.7356404443100506	0.0	1.0288760313493581	-1.0625362318301868	0.0	1.3600100252980185	-1.103060622893404	0.0	1.6470879724065357	-1.1884397630246346	0.0	1.6666347651303959	-1.1260136710739228	0.0	1.3822251513096362	-1.1125092717431793	0.0	1.0830685370071618	-0.7435082566759358	0.0	1.23286047504939	-1.0252575236405952	0.0	1.0142783615561315	-1.0885897483485223	0.0	1.3888487022904055	-1.2011131468578082	0.0	1.3101080798009515	-1.2011131468578082	0.0	1.1769822041884621	-1.1028302928856801	0.0	1.0330332200537702	-0.21771579370908758	0.0	1.114416699659285	-0.01994942017549613	0.0	1.118137829837542	-0.12673880497912723	0.0	0.9975488930737668	-0.26712541649538557	0.0	1.0897399117561435	-0.5207585974235315	0.0	1.3275174562718488	-0.6892879555831168	0.0	1.0463209161984617	-0.28716460342954886	0.0	1.1080116252203918	-0.5488124092593691	0.0	1.2347671632316495	-0.7224616707915997	0.0
39	1.304850746268657	1.0244913151474522	-0.7260951182544705	0.0	0.9904356914006301	-0.7322321489786904	0.0	1.0265840251203844	-1.0629484677955396	0.0	1.3600106806659205	-1.1030603422332943	0.0	1.6470884082054629	-1.188439855532811	0.0	1.6666347651171183	-1.1260136710943482	0.0	1.382225214182566	-1.1125092550686257	0.0	1.0898594831073019	-0.7384670520679166	0.0	1.2664254335523764	-0.999354260138866	0.0	1.0430768927338425	-1.0970538464640593	0.0	1.3887583490040492	-1.2011303501641302	0.0	1.3098539195482033	-1.2011303501641302	0.0	1.1768354299784642	-1.102698087765838	0.0	1.0279607029830538	-0.2148599108291953	0.0	1.1076908776678933	-0.017120200816833787	0.0	1.1128526892985706	-0.12362096505141414	0.0	0.9941017046914189	-0.2644401801471479	0.0	1.0980309916684805	-0.4996692031091739	0.0	1.3599274615331343	-0.6306093255700673	0.0	1.0372266989481256	-0.2831461070258618	0.0	1.114778382931604	-0.5392066361010531	0.0	1.261655377092267	-0.6812086055525156	0.0
40	1.338308457711443	1.0255485224850076	-0.723148330695294	0.0	0.9874173916512256	-0.729312651395454	0.0	1.022947016668815	-1.0639169407857598	0.0	1.3600109695517837	-1.103060217621396	0.0	1.647088548082256	-1.1884398832841203	0.0	1.6666347654169218	-1.126013671654089	0.0	1.3822252105919284	-1.112509254973517	0.0	1.0919483448868565	-0.7332195180868392	0.0	1.2899981800791613	-0.9683821371384761	0.0	1.0844915120438212	-1.1060140434857324	0.0	1.388664868006374	-1.2011752299307743	0.0	1.3096656302090235	-1.2011752299307743	0.0	1.1768082191704803	-1.1025544992937861	0.0	1.024975653281336	-0.21255881085603454	0.0	1.1039428511324452	-0.014796568668922785	0.0	1.1100287859380615	-0.12149871437841657	0.0	0.9916379390983224	-0.26231516660052295	0.0	1.105425142313273	-0.4799028761324365	0.0	1.3827140891312835	-0.5684538023432469	0.0	1.0301392130532478	-0.280329672255657	0.0	1.1217916566378396	-0.5278063239104905	0.0	1.2853703550593887	-0.6329204557119257	0.0
41	1.3717661691542289	1.0251585732438593	-0.7207926973533845	0.0	0.9835606592107239	-0.7270172800008756	0.0	1.0186703002291517	-1.065316005239045	0.0	1.3600110250930435	-1.1030601910069862	0.0	1.6470885283229557	-1.1884398764219262	0.0	1.6666347662791936	-1.1260136731544397	0.0	1.3822251807387178	-1.1125092622376045	0.0	1.0909744725666668	-0.7284015712006459	0.0	1.3056060638586695	-0.9354866737166737	0.0	1.1317563301387297	-1.111607243628654	0.0	1.3886249125618688	-1.2012578201922173	0.0	1.3097599835482774	-1.2012578201922173	0.0	1.1770884331704927	-1.1024771892633745	0.0	1.023983140300379	-0.2112979060976969	0.0	1.1033128482927685	-0.013238752514819162	0.0	1.1097389577933392	-0.12080006557762293	0.0	0.9903559543855824	-0.2607649454183037	0.0	1.1133913359141945	-0.463229595809544	0.0	1.3968375569919158	-0.5070171956794814	0.0	1.025228418256235	-0.2791934352895955	0.0	1.1295562048396262	-0.5162469772865431	0.0	1.3027841690071043	-0.5815249671280287	0.0
42	1.405223880597015	1.0237730333787665	-0.7191320218196673	0.0	0.9792487534753276	-0.7254352275147082	0.0	1.0146765823655108	-1.0667613432946714	0.0	1.360010960905032	-1.103060210708601	0.0	1.647088447925226	-1.188439856863714	0.0	1.666634767940419	-1.1260136759527113	0.0	1.3822251472220073	-1.1125092709369988	0.0	1.0886111335382378	-0.7245055317794753	0.0	1.315163494919025	-0.9042208322861983	0.0	1.1744891518200113	-1.1110316577191905	0.0	1.3887407374614233	-1.201377779252728	0.0	1.310477358111899	-1.201377779252728	0.0	1.1779302175728288	-1.1026109693041863	0.0	1.0244878768711736	-0.21127092588522525	0.0	1.1054016733916185	-0.012440196692639915	0.0	1.1116411820423329	-0.12168018201778125	0.0	0.9901920204724536	-0.25991087575601995	0.0	1.1226772310207245	-0.45044889205602107	0.0	1.4032646678305996	-0.45062632678598835	0.0	1.02188282803729	-0.2795689053957237	0.0	1.1377888098339046	-0.5055673215677164	0.0	1.3107582392940103	-0.5309614999003864	0.0
